REM DIRINDEX 1\2,1\3,1\4,1\5
REM DIRNAME cjc044,folder01,folder02,folder03,folder04
TITLE ""
FILE "1800_183.mp3" MP3
  TRACK 01 AUDIO
    TITLE "2:cjc044_6387"
    INDEX 01 00:00:00
  TRACK 02 AUDIO
    TITLE "0:"
    INDEX 01 00:01:22
  TRACK 03 AUDIO
    TITLE "3:cjc044_6388"
    INDEX 01 00:01:71
  TRACK 04 AUDIO
    TITLE "0:"
    INDEX 01 00:03:08
  TRACK 05 AUDIO
    TITLE "4:cjc044_6389"
    INDEX 01 00:03:53
  TRACK 06 AUDIO
    TITLE "0:"
    INDEX 01 00:05:16
  TRACK 07 AUDIO
    TITLE "2:cjc044_6390"
    INDEX 01 00:06:67
  TRACK 08 AUDIO
    TITLE "0:"
    INDEX 01 00:08:01
  TRACK 09 AUDIO
    TITLE "3:cjc044_6391"
    INDEX 01 00:08:54
  TRACK 10 AUDIO
    TITLE "0:"
    INDEX 01 00:09:47
  TRACK 11 AUDIO
    TITLE "4:cjc044_6392"
    INDEX 01 00:10:19
  TRACK 12 AUDIO
    TITLE "0:"
    INDEX 01 00:11:31
  TRACK 13 AUDIO
    TITLE "2:cjc044_6393"
    INDEX 01 00:13:04
  TRACK 14 AUDIO
    TITLE "0:"
    INDEX 01 00:14:37
  TRACK 15 AUDIO
    TITLE "3:cjc044_6394"
    INDEX 01 00:15:11
  TRACK 16 AUDIO
    TITLE "0:"
    INDEX 01 00:16:34
  TRACK 17 AUDIO
    TITLE "4:cjc044_6395"
    INDEX 01 00:17:08
  TRACK 18 AUDIO
    TITLE "0:"
    INDEX 01 00:18:37
  TRACK 19 AUDIO
    TITLE "2:cjc044_6396"
    INDEX 01 00:20:10
  TRACK 20 AUDIO
    TITLE "0:"
    INDEX 01 00:21:25
  TRACK 21 AUDIO
    TITLE "3:cjc044_6397"
    INDEX 01 00:21:72
  TRACK 22 AUDIO
    TITLE "0:"
    INDEX 01 00:23:04
  TRACK 23 AUDIO
    TITLE "4:cjc044_6398"
    INDEX 01 00:23:53
  TRACK 24 AUDIO
    TITLE "0:"
    INDEX 01 00:24:67
  TRACK 25 AUDIO
    TITLE "2:cjc044_6399"
    INDEX 01 00:26:40
  TRACK 26 AUDIO
    TITLE "0:"
    INDEX 01 00:27:61
  TRACK 27 AUDIO
    TITLE "3:cjc044_6400"
    INDEX 01 00:28:33
  TRACK 28 AUDIO
    TITLE "0:"
    INDEX 01 00:29:40
  TRACK 29 AUDIO
    TITLE "4:cjc044_6401"
    INDEX 01 00:30:16
  TRACK 30 AUDIO
    TITLE "0:"
    INDEX 01 00:31:37
  TRACK 31 AUDIO
    TITLE "2:cjc044_6402"
    INDEX 01 00:33:17
  TRACK 32 AUDIO
    TITLE "0:"
    INDEX 01 00:34:47
  TRACK 33 AUDIO
    TITLE "3:cjc044_6403"
    INDEX 01 00:35:17
  TRACK 34 AUDIO
    TITLE "0:"
    INDEX 01 00:36:31
  TRACK 35 AUDIO
    TITLE "4:cjc044_6404"
    INDEX 01 00:37:05
  TRACK 36 AUDIO
    TITLE "0:"
    INDEX 01 00:38:35
  TRACK 37 AUDIO
    TITLE "2:cjc044_6405"
    INDEX 01 00:40:09
  TRACK 38 AUDIO
    TITLE "0:"
    INDEX 01 00:41:20
  TRACK 39 AUDIO
    TITLE "3:cjc044_6406"
    INDEX 01 00:41:67
  TRACK 40 AUDIO
    TITLE "0:"
    INDEX 01 00:42:70
  TRACK 41 AUDIO
    TITLE "4:cjc044_6407"
    INDEX 01 00:43:42
  TRACK 42 AUDIO
    TITLE "0:"
    INDEX 01 00:44:52
  TRACK 43 AUDIO
    TITLE "2:cjc044_6408"
    INDEX 01 00:46:29
  TRACK 44 AUDIO
    TITLE "0:"
    INDEX 01 00:47:62
  TRACK 45 AUDIO
    TITLE "3:cjc044_6409"
    INDEX 01 00:48:30
  TRACK 46 AUDIO
    TITLE "0:"
    INDEX 01 00:49:59
  TRACK 47 AUDIO
    TITLE "4:cjc044_6410"
    INDEX 01 00:50:33
  TRACK 48 AUDIO
    TITLE "0:"
    INDEX 01 00:51:65
  TRACK 49 AUDIO
    TITLE "2:cjc044_6411"
    INDEX 01 00:53:39
  TRACK 50 AUDIO
    TITLE "0:"
    INDEX 01 00:54:64
  TRACK 51 AUDIO
    TITLE "3:cjc044_6412"
    INDEX 01 00:55:40
  TRACK 52 AUDIO
    TITLE "0:"
    INDEX 01 00:56:74
  TRACK 53 AUDIO
    TITLE "4:cjc044_6413"
    INDEX 01 00:57:46
  TRACK 54 AUDIO
    TITLE "0:"
    INDEX 01 00:58:71
  TRACK 55 AUDIO
    TITLE "2:cjc044_6414"
    INDEX 01 01:00:45
  TRACK 56 AUDIO
    TITLE "0:"
    INDEX 01 01:01:58
  TRACK 57 AUDIO
    TITLE "3:cjc044_6415"
    INDEX 01 01:02:28
  TRACK 58 AUDIO
    TITLE "0:"
    INDEX 01 01:03:26
  TRACK 59 AUDIO
    TITLE "4:cjc044_6416"
    INDEX 01 01:03:71
  TRACK 60 AUDIO
    TITLE "0:"
    INDEX 01 01:05:07
  TRACK 61 AUDIO
    TITLE "2:cjc044_6417"
    INDEX 01 01:06:57
  TRACK 62 AUDIO
    TITLE "0:"
    INDEX 01 01:08:07
  TRACK 63 AUDIO
    TITLE "3:cjc044_6418"
    INDEX 01 01:08:52
  TRACK 64 AUDIO
    TITLE "0:"
    INDEX 01 01:09:65
  TRACK 65 AUDIO
    TITLE "4:cjc044_6419"
    INDEX 01 01:10:37
  TRACK 66 AUDIO
    TITLE "0:"
    INDEX 01 01:11:62
  TRACK 67 AUDIO
    TITLE "2:cjc044_6420"
    INDEX 01 01:13:34
  TRACK 68 AUDIO
    TITLE "0:"
    INDEX 01 01:15:11
  TRACK 69 AUDIO
    TITLE "3:cjc044_6421"
    INDEX 01 01:15:54
  TRACK 70 AUDIO
    TITLE "0:"
    INDEX 01 01:17:16
  TRACK 71 AUDIO
    TITLE "4:cjc044_6422"
    INDEX 01 01:17:63
  TRACK 72 AUDIO
    TITLE "0:"
    INDEX 01 01:19:40
  TRACK 73 AUDIO
    TITLE "2:cjc044_6423"
    INDEX 01 01:21:12
  TRACK 74 AUDIO
    TITLE "0:"
    INDEX 01 01:22:17
  TRACK 75 AUDIO
    TITLE "3:cjc044_6424"
    INDEX 01 01:22:64
  TRACK 76 AUDIO
    TITLE "0:"
    INDEX 01 01:23:52
  TRACK 77 AUDIO
    TITLE "4:cjc044_6425"
    INDEX 01 01:24:24
  TRACK 78 AUDIO
    TITLE "0:"
    INDEX 01 01:25:31
  TRACK 79 AUDIO
    TITLE "2:cjc044_6426"
    INDEX 01 01:27:06
  TRACK 80 AUDIO
    TITLE "0:"
    INDEX 01 01:28:31
  TRACK 81 AUDIO
    TITLE "3:cjc044_6427"
    INDEX 01 01:29:07
  TRACK 82 AUDIO
    TITLE "0:"
    INDEX 01 01:30:20
  TRACK 83 AUDIO
    TITLE "4:cjc044_6428"
    INDEX 01 01:30:66
  TRACK 84 AUDIO
    TITLE "0:"
    INDEX 01 01:32:19
  TRACK 85 AUDIO
    TITLE "2:cjc044_6429"
    INDEX 01 01:33:70
  TRACK 86 AUDIO
    TITLE "0:"
    INDEX 01 01:35:67
  TRACK 87 AUDIO
    TITLE "3:cjc044_6430"
    INDEX 01 01:36:43
  TRACK 88 AUDIO
    TITLE "0:"
    INDEX 01 01:38:20
  TRACK 89 AUDIO
    TITLE "4:cjc044_6431"
    INDEX 01 01:38:65
  TRACK 90 AUDIO
    TITLE "0:"
    INDEX 01 01:40:68
  TRACK 91 AUDIO
    TITLE "2:cjc044_6432"
    INDEX 01 01:42:41
  TRACK 92 AUDIO
    TITLE "0:"
    INDEX 01 01:43:68
  TRACK 93 AUDIO
    TITLE "3:cjc044_6433"
    INDEX 01 01:44:38
  TRACK 94 AUDIO
    TITLE "0:"
    INDEX 01 01:45:67
  TRACK 95 AUDIO
    TITLE "4:cjc044_6434"
    INDEX 01 01:46:31
  TRACK 96 AUDIO
    TITLE "0:"
    INDEX 01 01:47:58
  TRACK 97 AUDIO
    TITLE "2:cjc044_6435"
    INDEX 01 01:49:28
  TRACK 98 AUDIO
    TITLE "0:"
    INDEX 01 01:50:43
  TRACK 99 AUDIO
    TITLE "3:cjc044_6436"
    INDEX 01 01:51:15
  TRACK 100 AUDIO
    TITLE "0:"
    INDEX 01 01:52:10
  TRACK 101 AUDIO
    TITLE "4:cjc044_6437"
    INDEX 01 01:52:51
  TRACK 102 AUDIO
    TITLE "0:"
    INDEX 01 01:53:69
  TRACK 103 AUDIO
    TITLE "2:cjc044_6438"
    INDEX 01 01:55:38
  TRACK 104 AUDIO
    TITLE "0:"
    INDEX 01 01:56:47
  TRACK 105 AUDIO
    TITLE "3:cjc044_6439"
    INDEX 01 01:57:17
  TRACK 106 AUDIO
    TITLE "0:"
    INDEX 01 01:57:70
  TRACK 107 AUDIO
    TITLE "4:cjc044_6440"
    INDEX 01 01:58:40
  TRACK 108 AUDIO
    TITLE "0:"
    INDEX 01 01:59:50
